HIERARCHY
ROOT Hips
{
	OFFSET 0.0000 0.0000 0.0000
	CHANNELS 6 Xposition Yposition Zposition Zrotation Xrotation Yrotation
	JOINT Ab
	{
		OFFSET -0.0000 8.0846 -0.0000
		CHANNELS 3 Zrotation Xrotation Yrotation
		JOINT Chest
		{
			OFFSET -0.0000 25.0068 -0.0000
			CHANNELS 3 Zrotation Xrotation Yrotation
			JOINT Neck
			{
				OFFSET -0.0000 25.0068 0.0000
				CHANNELS 3 Zrotation Xrotation Yrotation
				JOINT Head
				{
					OFFSET -0.0000 10.7556 0.0000
					CHANNELS 3 Zrotation Xrotation Yrotation
					End Site
					{
						OFFSET -0.0000 16.6222 0.0000
					}
				}
			}
			JOINT LeftCollar
			{
				OFFSET -0.0000 25.0068 0.0000
				CHANNELS 3 Zrotation Xrotation Yrotation
				JOINT LeftShoulder
				{
					OFFSET 19.5556 -0.0000 0.0000
					CHANNELS 3 Zrotation Xrotation Yrotation
					JOINT LeftElbow
					{
						OFFSET 27.1828 0.0000 0.0000
						CHANNELS 3 Zrotation Xrotation Yrotation
						JOINT LeftWrist
						{
							OFFSET 23.3157 0.0000 0.0000
							CHANNELS 3 Zrotation Xrotation Yrotation
							End Site
							{
								OFFSET 0.0000 -14.6667 0.0000
							}
						}
					}
				}
			}
			JOINT RightCollar
			{
				OFFSET -0.0000 25.0068 0.0000
				CHANNELS 3 Zrotation Xrotation Yrotation
				JOINT RightShoulder
				{
					OFFSET -19.5556 0.0000 0.0000
					CHANNELS 3 Zrotation Xrotation Yrotation
					JOINT RightElbow
					{
						OFFSET -27.1828 0.0000 0.0000
						CHANNELS 3 Zrotation Xrotation Yrotation
						JOINT RightWrist
						{
							OFFSET -23.3157 0.0000 0.0000
							CHANNELS 3 Zrotation Xrotation Yrotation
							End Site
							{
								OFFSET -0.0000 -14.6667 0.0000
							}
						}
					}
				}
			}
		}
	}
	JOINT LeftHip
	{
		OFFSET 11.7333 0.0000 0.0000
		CHANNELS 3 Zrotation Xrotation Yrotation
		JOINT LeftKnee
		{
			OFFSET -0.0000 -40.8688 0.0000
			CHANNELS 3 Zrotation Xrotation Yrotation
			JOINT LeftAnkle
			{
				OFFSET -0.0000 -44.4337 0.0000
				CHANNELS 3 Zrotation Xrotation Yrotation
				End Site
				{
					OFFSET -0.0000 -4.8889 16.6222
				}
			}
		}
	}
	JOINT RightHip
	{
		OFFSET -11.7333 0.0000 0.0000
		CHANNELS 3 Zrotation Xrotation Yrotation
		JOINT RightKnee
		{
			OFFSET -0.0000 -40.8688 0.0000
			CHANNELS 3 Zrotation Xrotation Yrotation
			JOINT RightAnkle
			{
				OFFSET -0.0000 -44.4337 0.0000
				CHANNELS 3 Zrotation Xrotation Yrotation
				End Site
				{
					OFFSET -0.0000 -4.8889 16.6222
				}
			}
		}
	}
}
MOTION
Frames: 22
Frame Time: 0.010000
0.0026 88.3551 69.8430 2.3761 358.4236 181.0185 4.4393 3.5880 358.1802 354.9453 9.5458 358.7455 1.1468 353.0844 358.7298 5.2048 21.1494 357.6328 340.5077 358.5318 8.6752 298.2377 12.6556 2.7842 8.2682 357.0091 320.0257 85.9509 359.4461 330.9080 22.4322 359.3566 356.8443 48.0141 44.5706 17.5576 337.7576 353.1569 34.0520 276.7654 351.2852 17.3336 3.0238 356.6943 355.5598 358.3099 13.1506 355.1926 357.0711 349.9130 21.8900 3.5391 343.8482 4.1748 359.3159 23.1798 11.2768 353.0295 348.3807 335.9801 
-0.1900 88.3571 69.7570 2.4443 358.4445 180.8941 4.3693 3.4969 358.2330 354.8839 9.4988 358.8029 1.1276 352.9162 358.7313 5.2228 21.2593 357.6573 340.4990 358.5144 8.7795 298.2644 12.7080 2.7869 8.3088 356.9765 320.1681 85.8419 359.5146 330.8107 22.4199 359.3403 356.7234 48.0775 44.6830 17.5729 337.8735 353.2106 33.9399 276.8830 351.2963 17.4776 2.9799 356.8005 355.6119 358.2890 13.1629 355.0752 357.3118 349.8636 22.0585 3.4987 343.9121 4.1958 359.3146 23.1815 11.3941 353.1331 348.3374 335.9590 
-0.3844 88.3574 69.6718 2.5142 358.4436 180.7774 4.3740 3.3436 358.2279 354.7370 9.4865 358.7995 1.1183 352.8394 358.7341 5.2877 21.2815 357.6392 340.5402 358.5259 8.7250 298.2823 12.4513 2.8544 8.1638 357.0549 320.2035 85.9786 359.5852 330.5923 22.4536 359.3140 356.6146 48.1695 44.7713 17.4997 338.0602 353.2810 33.8334 276.8464 351.2956 17.5900 2.9370 356.9354 355.4153 358.2186 13.0663 355.2246 357.5273 349.8656 22.2103 3.4566 343.9407 4.2292 359.3347 23.2011 11.4739 353.2316 348.2688 335.9159 
-0.5789 88.3607 69.5970 2.6059 358.3860 180.6609 4.3200 3.2336 358.3085 354.6919 9.3001 358.8542 1.1432 352.8098 358.7084 5.3013 21.3318 357.6373 340.5068 358.5259 8.6897 298.3468 12.2663 2.9613 8.1500 357.0395 320.1141 85.5550 359.9542 330.0990 22.4643 359.2915 356.5285 48.3765 44.7491 17.2518 338.3587 353.4147 33.7475 276.7381 351.1946 17.7094 2.9168 357.0307 355.2905 358.1694 12.9237 355.3769 357.6325 349.8626 22.2607 3.4674 343.8325 4.1873 359.2797 23.3695 11.6121 353.3380 348.1232 335.8639 
-0.7798 88.3635 69.5411 2.6896 358.2410 180.5962 4.3939 3.0338 358.2752 354.4968 9.1050 358.8189 1.1314 352.8718 358.6746 5.3919 21.3230 357.5899 340.5378 358.5422 8.5855 298.3995 12.1676 3.0508 8.1133 357.0478 320.2283 85.4771 0.0057 329.6708 22.5480 359.2939 356.4471 48.6544 44.6728 16.8713 338.6810 353.5413 33.7317 276.6721 351.1682 18.0310 2.8698 357.0034 355.2307 358.1621 12.7921 355.5821 357.7501 349.8889 22.1789 3.4517 343.6011 4.0315 359.2031 23.5874 11.7480 353.4422 347.9478 335.8804 
-0.9669 88.3593 69.4763 2.7789 358.1547 180.4743 4.4463 2.8630 358.2344 354.3351 8.9850 358.7855 1.0577 352.8826 358.7539 5.5111 21.3080 357.6102 340.5869 358.5329 8.6675 298.4008 12.1006 3.0238 8.2015 357.0111 320.3651 85.1385 359.9483 329.3355 22.5882 359.2856 356.4469 48.7463 44.8518 16.7061 338.8799 353.6085 33.5834 276.8507 351.0858 18.2343 2.8468 357.0748 355.3135 358.1717 12.6225 355.6288 357.8755 349.9028 22.1442 3.4695 343.4119 3.9547 359.1537 23.8225 11.8072 353.4962 347.7507 335.8730 
-1.1482 88.3523 69.3974 2.8843 358.1353 180.3053 4.4009 2.8326 358.3019 354.3074 8.7532 358.8486 1.0796 352.9256 358.7841 5.4981 21.3202 357.6461 340.5827 358.5418 8.6184 298.4530 11.7573 3.1530 7.9495 357.1721 320.4396 85.4321 359.8792 328.8341 22.5744 359.2725 356.4269 49.0020 45.0236 16.3547 339.1250 353.7000 33.5482 276.7207 351.0953 18.5359 2.8596 357.2660 355.3829 358.1490 12.3816 355.7028 358.0181 349.9604 22.1643 3.5272 343.2578 3.9462 359.0871 24.1501 11.8750 353.6413 347.5270 335.8877 
-1.3228 88.3410 69.3043 3.0104 358.1561 180.1823 4.4678 2.7657 358.2608 354.1929 8.6399 358.8103 1.0723 352.9633 358.7925 5.5212 21.3153 357.6820 340.6404 358.5591 8.5740 298.4682 11.7752 3.1816 8.0948 357.0825 320.4365 84.8717 0.1378 328.6447 22.5912 359.2791 356.3966 49.2581 45.0247 16.0178 339.3889 353.7927 33.5205 276.9353 351.0852 18.9585 2.9033 357.5139 355.4803 358.1221 12.1223 355.6999 358.0727 349.9664 22.1707 3.5857 343.1262 3.9469 359.0864 24.5385 11.7919 354.0704 346.9753 336.0239 
-1.4970 88.3280 69.2144 3.0931 358.1450 179.9991 4.4678 2.6870 358.2527 354.1031 8.4896 358.7967 1.0141 353.0097 358.8918 5.5964 21.3700 357.7684 340.6794 358.5397 8.6042 298.4786 11.6357 3.2658 7.9572 357.1460 320.3725 85.2114 0.1891 328.5023 22.6004 359.3010 356.4902 49.5156 45.0949 15.6361 339.6974 353.9017 33.5171 276.8742 351.1040 19.5255 2.8991 357.7671 355.5558 358.0949 11.7997 355.8761 358.0301 349.9114 22.1123 3.6372 342.8448 3.9359 359.0020 25.1329 11.9791 354.2615 346.6050 335.9546 
-1.6601 88.3091 69.1144 3.1885 358.1859 179.8365 4.4090 2.7026 358.2756 354.1059 8.2920 358.8076 1.0307 353.0782 358.9465 5.5884 21.4083 357.8253 340.6843 358.5506 8.6201 298.5303 11.6772 3.2910 8.0304 357.1072 320.3895 84.7913 0.3478 328.3481 22.5825 359.2914 356.5037 49.8369 45.1800 15.2302 339.8918 353.9434 33.4794 277.1588 351.2143 19.8988 2.9211 358.0782 355.6391 358.0571 11.4869 355.9311 358.1550 349.9503 22.1231 3.6907 342.5855 3.9225 358.9484 25.7823 12.0345 354.1781 346.4006 335.8947 
-1.8114 88.2812 68.9925 3.3197 358.3533 179.7117 4.4052 2.7981 358.2579 354.1016 8.1854 358.7880 1.0941 353.1504 359.0146 5.5032 21.4089 357.9001 340.7163 358.5380 8.5364 298.5693 11.5733 3.3600 7.8606 357.1873 320.3480 85.2184 0.2375 328.4802 22.5670 359.2845 356.4621 50.1176 45.2366 14.8925 340.1704 354.0425 33.4479 277.0680 351.2554 20.3623 2.9680 358.5128 355.7613 358.0510 11.1885 355.9519 358.2118 349.9563 22.0715 3.7940 342.4119 3.9078 358.9056 26.5462 11.8336 354.4681 345.9834 336.0843 
-1.9638 88.2524 68.8625 3.4628 358.5655 179.6460 4.4735 2.9616 358.1787 354.0375 8.0321 358.7121 1.1427 353.2374 359.0755 5.4433 21.4261 357.9675 340.7179 358.5404 8.5356 298.6771 11.8361 3.3458 7.9753 357.0981 320.3513 84.9022 0.3370 328.5912 22.5807 359.2924 356.4375 50.3953 45.3599 14.5398 340.3591 354.1010 33.2862 277.2407 351.0559 20.7317 3.0158 358.9884 355.7407 358.0449 10.8770 356.0427 358.2341 349.9557 22.0264 3.8751 342.2449 3.8856 358.9035 27.3971 11.7363 354.9748 345.4306 336.1446 
-2.1085 88.2213 68.7262 3.5331 358.6997 179.4934 4.4417 3.0192 358.1423 353.9862 7.9143 358.6750 1.1231 353.2811 359.1776 5.4893 21.5029 358.0624 340.6045 358.4712 9.1116 298.9728 14.4976 2.7936 9.4112 356.3306 320.8509 84.2227 0.2427 330.4405 22.5903 359.2759 356.4786 50.7272 45.4754 14.1699 340.5368 354.1613 33.1130 277.3796 350.9393 21.1274 3.0042 359.4089 355.7749 358.0275 10.5714 355.9711 358.3262 349.9619 22.1752 3.9053 341.9134 3.9339 358.9040 28.3562 11.8114 355.1107 344.8781 335.8169 
-2.2453 88.1889 68.6030 3.5851 358.8034 179.3453 4.3743 3.0841 358.1128 353.9696 7.7639 358.6405 1.1075 353.3228 359.2592 5.5258 21.5597 358.1343 340.4701 358.3865 9.5975 299.3046 17.0846 2.3341 10.8580 355.7673 321.4000 83.8354 0.0168 332.3056 22.5965 359.2865 356.4882 51.0816 45.5052 13.7872 340.7421 354.2380 33.0117 277.5723 351.0972 21.5769 2.9849 359.7579 355.8768 357.9995 10.3247 355.8586 358.4677 349.9853 22.3121 3.9256 341.4789 3.9264 358.9251 29.4079 11.7108 355.2475 344.5434 335.6616 
-2.3828 88.1562 68.5371 3.6043 358.7388 179.2235 4.3116 3.0530 358.0617 353.9245 7.5832 358.5805 1.0911 353.3333 359.3464 5.5617 21.5902 358.2176 340.5511 358.4154 9.1718 299.2995 15.3384 2.7009 9.9505 356.5047 321.0705 84.2699 359.9508 331.2066 22.5996 359.2886 356.4831 51.4401 45.5307 13.4363 340.7943 354.2743 32.8705 277.9928 350.9653 22.0384 2.9320 359.8206 356.0272 357.9677 10.2042 355.8737 358.6687 350.0209 22.2861 3.8918 340.7727 3.9078 358.9909 30.5471 11.6904 355.0926 344.4099 335.5145 
-2.5204 88.1195 68.4351 3.6072 358.7661 179.1063 4.2163 3.0999 358.0204 353.9172 7.3976 358.5290 1.0949 353.3808 359.4347 5.5488 21.5821 358.3084 340.5370 358.3859 9.5541 299.4231 16.9682 2.2365 10.8302 356.0102 321.3683 83.7068 359.9718 332.1235 22.5953 359.3026 356.4299 51.7765 45.6169 13.1190 340.9189 354.3725 32.7087 277.9710 350.9626 22.1709 2.8626 0.0261 356.1299 357.9369 10.0311 355.8928 358.8435 350.0481 22.2800 3.7958 340.2250 3.8687 359.1472 31.5526 11.6564 354.7208 344.4753 335.3692 
-2.6514 88.0818 68.3123 3.6221 358.8334 178.9981 4.1259 3.1260 357.9884 353.9203 7.3145 358.4905 1.1305 353.4121 359.5026 5.5150 21.5568 358.3803 340.4863 358.3318 9.7343 299.6645 18.0707 1.9120 11.4162 355.8236 321.6437 83.5430 359.8154 332.9743 22.5797 359.2840 356.3640 52.1637 45.6388 12.8088 340.9805 354.4185 32.5632 277.9750 350.9962 22.3889 2.7967 0.3002 356.0857 357.9115 9.8259 355.9611 358.9648 350.0445 22.3464 3.6951 339.7518 3.8703 359.4217 32.4716 11.0570 354.7961 344.4967 335.6167 
-2.7825 88.0476 68.1845 3.6234 358.8854 178.9231 4.0571 3.1468 357.9269 353.8954 7.2200 358.4230 1.1801 353.4471 359.5498 5.4732 21.5597 358.4335 340.4154 358.3395 9.7030 299.9352 18.6455 1.7615 11.6360 355.8361 321.8153 83.7703 359.7220 333.5293 22.5951 359.2746 356.2837 52.5368 45.5465 12.4107 341.1653 354.4732 32.7088 278.1394 351.4120 22.8205 2.7036 0.5243 356.1029 357.9192 9.6986 355.9320 359.0549 350.0277 22.3962 3.5631 339.3061 3.8594 359.6911 33.2210 10.5484 355.2636 344.2133 335.5986 
-2.8944 88.0164 68.0304 3.6797 359.0060 178.9069 4.0181 3.2298 357.8563 353.9189 7.1239 358.3482 1.2113 353.5070 359.5796 5.4742 21.5502 358.4624 340.3493 358.3555 9.6014 300.1416 18.9659 1.6494 11.9092 355.7709 321.9075 83.4468 359.7464 333.8003 22.5705 359.2444 356.1648 52.9206 45.5912 12.0737 341.1333 354.4484 32.6998 278.5570 351.5395 22.8148 2.6790 0.8386 356.1794 357.9329 9.5456 355.7681 358.6339 349.7897 22.5237 3.4834 339.0151 3.7817 0.0764 33.7435 9.2792 355.6652 344.1556 336.0050 
-3.0022 87.9947 67.8679 3.7173 359.0662 178.7985 3.9587 3.2183 357.8337 353.9435 7.1009 358.3209 1.2423 353.5512 359.6336 5.4689 21.5330 358.5196 340.2915 358.3629 9.4252 300.3576 18.7765 1.5908 11.7528 355.9321 321.8532 83.6506 359.7735 333.6587 22.5146 359.2377 356.1132 53.4111 45.5349 11.6681 341.2148 354.4908 32.6403 278.5638 351.4219 22.9708 2.6336 1.1596 356.0619 357.9318 9.2744 355.8981 358.8147 349.8655 22.5694 3.4068 338.6998 3.6899 0.3068 34.0640 8.6101 355.9539 344.0872 336.1355 
-3.1046 87.9788 67.6980 3.7649 359.1439 178.7035 3.9148 3.2453 357.8110 353.9804 7.0433 358.2918 1.2865 353.6337 359.6440 5.4740 21.5345 358.5255 340.2472 358.3842 9.2118 300.5223 18.7444 1.5112 11.6558 355.9826 321.9546 83.9175 359.6598 333.6191 22.4709 359.2092 355.9673 53.8114 45.5080 11.3312 341.2741 354.5137 32.6354 278.5394 351.4711 22.6899 2.5813 1.4712 356.1029 357.9747 9.0781 355.9627 358.8413 349.8362 22.5692 3.3526 338.3972 3.4973 0.3869 34.3364 8.3006 356.0078 344.0952 336.1177 
-3.2043 87.9630 67.5176 3.8250 359.2553 178.5796 3.8896 3.3009 357.8025 354.0225 7.0227 358.2817 1.3419 353.6764 359.6578 5.4694 21.5650 358.5383 340.1907 358.4044 9.0680 300.7224 18.8903 1.2856 11.7706 355.9448 322.1294 83.6074 359.6263 333.5372 22.4070 359.1779 355.8358 54.2605 45.4730 10.9583 341.2093 354.4749 32.6368 279.0569 351.4757 22.6119 2.5434 1.7982 356.0020 357.9774 8.9387 356.1237 359.0108 349.8689 22.5827 3.3114 338.1566 3.4456 0.5500 34.4324 7.8942 355.8607 344.1857 336.0673 
